# xmcd
#
# Track frame offsets:
#   150
#   20900
#   39489
#   50829
#   66342
#   85533
#   106797
#   125426
#   138532
#   154469
#   167582
#   181814
#   200736
#   216884
#   226471
#   242090
#   253797
#   269980
#   285970
#   299021
#   311253
#
# Disc length: 4344 seconds
#
# Revision: 0
# Processed by: cddbd v1.5.2PL0 Copyright (c) Steve Scherf et al.
# Submitted via: uFREEDB 1.6.2
#
DISCID=4510f615
DTITLE=sj1 - qw456
DYEAR=1900
DGENRE=Country
TTITLE0=a0001
TTITLE1=a002
TTITLE2=a003
TTITLE3=a004
TTITLE4=a005
TTITLE5=a006
TTITLE6=a007
TTITLE7=a008
TTITLE8=a009
TTITLE9=a100
TTITLE10=a101
TTITLE11=a102
TTITLE12=a103
TTITLE13=a104
TTITLE14=a105
TTITLE15=a106
TTITLE16=a1067
TTITLE17=a108
TTITLE18=a109
TTITLE19=a110
TTITLE20=a111
EXTD=
EXTT0=
EXTT1=
EXTT2=
EXTT3=
EXTT4=
EXTT5=
EXTT6=
EXTT7=
EXTT8=
EXTT9=
EXTT10=
EXTT11=
EXTT12=
EXTT13=
EXTT14=
EXTT15=
EXTT16=
EXTT17=
EXTT18=
EXTT19=
EXTT20=
PLAYORDER=
